<?xml version="1.0" encoding="UTF-8"?>
<svg id="Calque_4" data-name="Calque 4" xmlns="http://www.w3.org/2000/svg" viewBox="0 0 750.5 331">
  <defs>
    <style>
      .cls-1 {
        fill: #fac800;
      }
    </style>
  </defs>
  <path class="cls-1" d="M343.61,148.68L214.38,19.46c-29.03,1.78-67.4,5.74-67.4,5.74-11.96.82-24.8,5.9-34.05,10.37l230.68,113.11Z"/>
  <path class="cls-1" d="M341.12,158.6L102.04,41.37c-.64.38-1.15.69-1.51.9-.41.25-.88.39-1.37.39h-7.28c-1.44,0-2.61,1.17-2.61,2.61v12.01c0,.37-.08.74-.23,1.08-6.7,14.71-13.41,29.42-20.11,44.13l272.19,56.1Z"/>
  <path class="cls-1" d="M327.5,166L64.68,111.83c-8.23,18.06-16.46,36.12-24.69,54.17h287.5Z"/>
  <polygon class="cls-1" points="378 183.07 378 268.35 463.67 268.74 378 183.07"/>
  <path class="cls-1" d="M714.03,259.41h21.36c1.44,0,2.61-1.17,2.61-2.61v-14.43c0-1.4-1.11-2.55-2.51-2.61l-11.73-.47-.13-1.78c-.04-.57.11-1.14.42-1.61l4.93-7.55c.42-.64.54-1.44.31-2.18l-.77-2.57c-.35-1.15-1.43-1.92-2.63-1.86h-.18c-.97.06-1.89-.44-2.38-1.27l-.76-1.29c-.22-.38-.35-.81-.36-1.25l-.14-4.77c-.02-.76.29-1.49.85-2.01l2.52-2.29c.5-.45.8-1.07.85-1.74.24-3.6.97-16.18.37-31.12h-320.15l307.5,83.41Z"/>
  <path class="cls-1" d="M35.21,176c-.51.45-1.19.68-1.92.75-.95.09-5.93-.84-8.21,4.09-2.06,4.47-1.26,14.52-.19,18.69.96,3.76,3.02,3.67,3.43,4.93.15.45.17.92.06,1.38l-.48,2.09-2.69,11.86c-.27,1.19-1.33,2.03-2.54,2.03h-5.84c-1.44,0-2.61,1.17-2.61,2.61v3.13c0,1.44,1.17,2.61,2.61,2.61s2.61,1.17,2.61,2.61v5.41c0,1.44-1.17,2.61-2.61,2.61h-6.6c-1.42,0-2.58,1.14-2.61,2.56l-.24,12.87v1.25c0,1.44,1.16,2.61,2.6,2.61l18.85.06c.99,0,1.89.56,2.33,1.44l.27.55c.44.88,1.33,1.44,2.32,1.44h.24s305.62-87.59,305.62-87.59H35.21Z"/>
  <path class="cls-1" d="M151.72,324.89c47.76-2.02,56.42-44.63,57.83-55.04.18-1.3,1.28-2.27,2.6-2.27l56.94.26,85.82-85.82-285.47,81.82,17.69.12c1.31,0,2.41.97,2.57,2.28,1.37,11.28,10.36,60.84,62.02,58.65Z"/>
  <polygon class="cls-1" points="368 268.3 368 183.07 283.17 267.91 368 268.3"/>
  <path class="cls-1" d="M368,158.93V18.09c-22.2-1.52-41.26-1.52-41.26-1.52l-91.67,2.03c-2.17.02-4.6.08-7.22.17l140.15,140.15Z"/>
  <path class="cls-1" d="M391.3,182.23l86.57,86.57,98.48.46c1.26,0,2.32.89,2.55,2.13,1.88,10.21,12.89,53.83,64,53.49,46.22-.3,56.14-41.86,58.26-58.6l-309.87-84.05Z"/>
  <path class="cls-1" d="M378,158.93l86.17-86.17c-15.64-20.69-30.23-39.96-30.23-39.96-7.03-7.77-31.92-11.81-55.95-13.92v140.06Z"/>
  <path class="cls-1" d="M505.94,125.9c-.87.02-4.3-3.57-4.83-4.27-3.18-4.22-16.74-22.16-30.85-40.82l-85.19,85.19h340.94c-2.59-17.03-22.05-20.81-26.82-21.48-.58-.08-1.13-.33-1.51-.77-8.91-10.39-84.92-14.37-89.33-14.59-29.52-4.54-91.3-3.57-102.41-3.26Z"/>
</svg>