<?xml version="1.0" encoding="UTF-8"?>
<svg id="Calque_1" xmlns="http://www.w3.org/2000/svg" version="1.1" viewBox="0 0 434.3 164.4">
  <!-- Generator: Adobe Illustrator 29.2.0, SVG Export Plug-In . SVG Version: 2.1.0 Build 108)  -->
  <defs>
    <style>
      .st0 {
        fill: #fa9900;
      }
    </style>
  </defs>
  <polygon class="st0" points="208.7 141.8 127.6 141.8 127.6 57.8 105.4 57.8 102 57.8 22.2 57.8 22.2 22.7 105.4 22.7 105.4 54.9 127.6 54.9 127.6 22.7 127.6 0 105.4 0 22.2 0 0 0 0 22.7 0 164.4 22.2 155.2 22.2 80.5 105.4 80.5 105.4 141.8 105.4 164.4 127.6 164.4 210.8 164.4 231.4 164.4 208.7 141.8"/>
  <polygon class="st0" points="412.1 0 338.3 0 328.9 0 306.7 0 232.9 0 210.8 0 210.8 22.7 210.8 139.6 232.9 161.8 232.9 141.8 232.9 22.7 306.7 22.7 306.7 164.4 328.9 155.2 328.9 85.4 328.9 80.5 328.9 57.8 328.9 47.5 328.9 22.7 338.3 22.7 412.1 22.7 412.1 57.8 331.9 57.8 331.9 80.5 412.1 80.5 412.1 164.4 434.3 155.2 434.3 22.7 434.3 0 412.1 0"/>
</svg>