<?xml version="1.0" encoding="UTF-8"?>
<svg id="Calque_1" data-name="Calque 1" xmlns="http://www.w3.org/2000/svg" viewBox="0 0 434.28 164.43">
  <defs>
    <style>
      .cls-1 {
        fill: #ffcd03;
      }
    </style>
  </defs>
  <polygon class="cls-1" points="208.68 141.75 127.56 141.75 127.56 57.85 105.39 57.85 102.05 57.85 22.17 57.85 22.17 22.67 105.39 22.67 105.39 54.87 127.56 54.87 127.56 22.67 127.56 0 105.39 0 22.17 0 0 0 0 22.67 0 164.43 22.17 155.2 22.17 80.53 105.39 80.53 105.39 141.75 105.39 164.43 127.56 164.43 210.78 164.43 231.36 164.43 208.68 141.75"/>
  <polygon class="cls-1" points="412.11 0 338.34 0 328.89 0 306.72 0 232.95 0 210.78 0 210.78 22.67 210.78 139.63 232.95 161.8 232.95 141.75 232.95 22.67 306.72 22.67 306.72 164.43 328.89 155.2 328.89 85.41 328.89 80.53 328.89 57.85 328.89 47.47 328.89 22.67 338.34 22.67 412.11 22.67 412.11 57.85 331.87 57.85 331.87 80.53 412.11 80.53 412.11 164.43 434.28 155.2 434.28 22.67 434.28 0 412.11 0"/>
</svg>