<?xml version="1.0" standalone="no"?>
<!DOCTYPE svg PUBLIC "-//W3C//DTD SVG 20010904//EN"
 "http://www.w3.org/TR/2001/REC-SVG-20010904/DTD/svg10.dtd">
<svg version="1.0" xmlns="http://www.w3.org/2000/svg"
 width="2000.000000pt" height="2000.000000pt" viewBox="0 0 2000.000000 2000.000000"
 preserveAspectRatio="xMidYMid meet">

<g transform="translate(0.000000,2000.000000) scale(0.100000,-0.100000)"
fill="#000000" stroke="none">
<path d="M9615 14620 c-284 -27 -510 -66 -769 -132 -1284 -326 -2376 -1203
-2980 -2393 -253 -497 -398 -979 -472 -1565 -21 -170 -30 -684 -15 -877 38
-474 145 -933 322 -1378 66 -168 258 -543 358 -703 863 -1375 2328 -2192 3929
-2192 999 0 1951 312 2747 900 286 211 649 559 857 820 612 770 948 1626 1019
2600 14 200 7 596 -16 799 -136 1229 -750 2349 -1710 3116 -689 551 -1489 885
-2375 991 -155 19 -748 28 -895 14z m835 -605 c1072 -130 2021 -655 2693
-1492 1054 -1313 1177 -3147 308 -4593 -547 -910 -1446 -1578 -2471 -1835
-344 -87 -605 -118 -980 -119 -288 0 -400 8 -660 50 -1523 243 -2797 1376
-3225 2868 -166 579 -200 1220 -95 1816 266 1509 1387 2750 2864 3174 242 70
529 122 796 145 154 14 610 5 770 -14z"/>
<path d="M8465 11689 c-292 -37 -575 -208 -744 -449 -66 -93 -100 -161 -138
-270 -58 -166 -58 -159 -58 -980 l0 -755 27 -96 c37 -135 80 -234 147 -336
109 -165 252 -289 436 -378 131 -64 237 -93 394 -106 72 -6 664 -9 1556 -6
1424 3 1441 3 1526 24 224 55 376 140 534 298 160 160 248 319 298 540 19 84
20 132 24 740 5 710 -1 846 -43 993 -53 187 -151 348 -292 484 -102 97 -169
144 -295 203 -106 50 -216 81 -337 95 -107 12 -2936 11 -3035 -1z m1825 -1266
c332 -181 616 -340 630 -355 33 -32 42 -62 26 -82 -6 -8 -297 -154 -646 -326
l-635 -312 -52 6 c-56 7 -98 21 -125 44 -17 14 -18 58 -18 649 0 399 4 641 10
653 9 16 62 41 115 54 54 13 112 -15 695 -331z"/>
</g>
</svg>
