<?xml version="1.0" encoding="UTF-8"?>
<svg id="Calque_1" data-name="Calque 1" xmlns="http://www.w3.org/2000/svg" viewBox="0 0 135 135">
  <defs>
    <style>
      .cls-1 {
        fill: #FA9900;
      }
    </style>
  </defs>
  <path class="cls-1" d="M63.27.1c57.11-2.97,92.6,61.51,58.2,107.77-30.72,41.31-94.4,34.15-115.53-12.63C-13.36,52.49,16.64,2.52,63.27.1ZM64.44,8.71C20.77,10.83-5.54,59.13,16.67,97.18c21.68,37.14,74.63,39.24,99.09,3.8,27.75-40.2-2.9-94.63-51.33-92.28Z"/>
  <path class="cls-1" d="M46.23,42.85l42.19-.04c8.73.72,14.63,7.12,15.08,15.82.27,5.34.25,12.18,0,17.52-.44,9.35-6.56,15.67-15.95,16.12-13.89.68-28.44-.39-42.37-.17-7.6-1.04-13.34-7.23-13.79-14.93-.39-6.8.16-14.16.19-20.98,1.12-7.27,7.28-12.91,14.64-13.35ZM61.96,56.56c-.51.04-1.83.4-2.05.88l-.03,18.79c.29.65,2.62,1.16,3.27.66,5.19-2.61,10.44-5.08,15.64-7.68,2.01-1,4.12-1.44,1.16-3.31-5.26-3.32-11.47-5.85-16.81-9.13-.4-.18-.74-.23-1.18-.2Z"/>
</svg>