<?xml version="1.0" encoding="UTF-8"?>
<svg id="Calque_1" data-name="Calque 1" xmlns="http://www.w3.org/2000/svg" viewBox="0 0 135 135">
  <defs>
    <style>
      .cls-1 {
        fill: #FA9900;
      }

      .cls-2 {
        fill: #fff;
      }
    </style>
  </defs>
  <g>
    <path class="cls-1" d="M55.89,79.07c-9.07-9.09-4.99-24.9,7.35-28.36,12.98-3.64,24.83,8.43,20.9,21.37-3.69,12.16-19.24,16.01-28.25,6.99ZM66.44,56.25c-7.92.89-11.98,10.35-7.51,16.93s14.72,6.2,18.55-.92c4.26-7.92-2.17-17.01-11.03-16.01Z"/>
    <g>
      <path class="cls-1" d="M63.97.08c54.94-2.58,90.29,58.4,59.75,104.65-27.75,42.03-90.16,39.89-114.96-3.92C-15.89,57.24,14.29,2.42,63.97.08ZM65.43,8.69C19.53,10.37-7.22,62.19,18.78,100.55c23.96,35.35,76.36,34.17,98.73-2.19,24.57-39.93-5.58-91.38-52.09-89.68Z"/>
      <path class="cls-1" d="M51.3,32.76c10.31-.84,21.6.55,32.01-.05,10.71,1.02,18.44,9.55,19,20.22.53,10.16-.28,20.88-.15,31.07-1.3,10.52-9.7,17.91-20.17,18.46-10.09.53-20.75-.28-30.88-.15-9.83-1.08-17.55-9.04-18.43-18.89.51-10.38-.66-21.37,0-31.67.62-9.75,8.9-18.19,18.62-18.99ZM52.9,39.47c-7.58.56-13.08,6.32-13.52,13.88-.57,9.8.29,20.33.19,30.17,1,6.54,6.44,11.5,13,12.08,9.68-.53,20.12.71,29.71,0,6.96-.52,12.67-6.22,13.18-13.2.71-9.61-.53-20.06,0-29.76-.58-6.62-5.59-12.08-12.18-13.04-9.87.2-20.58-.84-30.38-.12Z"/>
      <path class="cls-1" d="M82.99,51.78c-3.67-3.79,1.96-9.45,5.71-5.79,3.91,3.81-2.02,9.6-5.71,5.79Z"/>
    </g>
  </g>
</svg>