<?xml version="1.0" encoding="UTF-8"?>
<svg id="Calque_1" data-name="Calque 1" xmlns="http://www.w3.org/2000/svg" viewBox="0 0 135 135.03">
  <defs>
    <style>
      .cls-1 {
        fill: #FA9900;
      }
    </style>
  </defs>
  <path class="cls-1" d="M64.81.03c-2.28.14-4.13.3-5.6.48-10.5,1.29-20.34,4.93-29.14,10.79-9.58,6.38-17.4,15.13-22.66,25.36C3.25,44.77.93,53,.13,62.51c-.18,2.04-.18,7.99,0,10.03.79,9.51,3.11,17.75,7.28,25.87,6.44,12.54,16.66,22.76,29.2,29.2,8.12,4.17,16.35,6.49,25.87,7.28,2.04.18,7.99.18,10.03,0,9.51-.79,17.75-3.11,25.87-7.28,12.53-6.44,22.76-16.67,29.2-29.2,4.17-8.12,6.49-16.35,7.28-25.87.18-2.04.18-7.99,0-10.03-.79-9.51-3.11-17.75-7.28-25.87-6.44-12.54-16.66-22.76-29.2-29.2-7.95-4.09-16.16-6.44-25.23-7.22-1.73-.16-7.03-.29-8.34-.2ZM72.61,8.25c11.59.99,22.39,5.27,31.68,12.54,4.23,3.31,8.49,7.79,11.68,12.27,6.31,8.87,9.97,18.93,10.87,29.98.17,2.04.17,6.94,0,8.97-1.2,14.62-7.32,27.74-17.65,37.91-10.13,9.94-22.93,15.77-37.2,16.94-2.04.17-6.94.17-8.97,0-14.27-1.17-27.04-6.98-37.19-16.94-10.34-10.13-16.48-23.33-17.66-37.91-.16-2.04-.16-6.94,0-8.97,1.18-14.61,7.32-27.75,17.71-37.96,9.21-9.04,20.96-14.81,33.6-16.5,4.39-.58,8.78-.7,13.13-.33Z"/>
  <path class="cls-1" d="M65.84,30.58c-6.32.32-11.6,1.62-16.82,4.13-7.39,3.57-12.68,8.92-16.62,16.83-2.57,5.16-4.04,10.55-4.51,16.46-.25,3.17-.03,7.97.49,11,.91,5.23,2.96,10.51,5.62,14.55,4.61,6.96,12.21,11.72,22.15,13.88,4.55.99,8.41,1.33,14.09,1.25,3.77-.05,5.65-.21,8.56-.71,6.95-1.19,13.01-3.81,17.67-7.65,1.24-1.02,3.33-3.14,4.25-4.31s2.12-3.01,2.81-4.31c.33-.61.59-1.15.59-1.18,0-.04-1.89-.07-4.19-.06h-4.2l-.74.9c-4.04,4.93-10.5,8.17-18.65,9.37-4.4.65-11.02.65-15.42.01-6.47-.96-12.08-3.19-16.07-6.4-4.21-3.39-7.42-8.57-8.92-14.4-1.7-6.62-1.09-14.77,1.65-22.01,2.47-6.5,6.24-11.36,11.5-14.8,4.25-2.79,8.96-4.34,15.1-4.95,1.64-.17,6.29-.17,7.92,0,6.94.7,12.14,2.93,16.17,6.96,3.89,3.86,6.06,8.46,6.59,13.9.17,1.77.07,4.72-.22,6.44-1.16,6.87-5.25,13.18-10.6,16.4-1.21.73-2.61,1.16-3.28,1.01-1.08-.23-1.44-1.15-1.16-3.03.18-1.31.13-1.02,2.16-10.95.41-2.01.79-3.85.84-4.12s.43-2.11.84-4.12.79-3.85.84-4.12.43-2.11.84-4.12.78-3.8.81-3.99l.06-.34h-10.45l-.45,2.08c-.24,1.15-.48,2.15-.52,2.22-.04.08-.29-.16-.64-.67-1.53-2.14-3.83-3.64-6.57-4.3-.87-.2-1.28-.23-3.36-.22-2.07,0-2.52.03-3.48.23-3.41.74-6.28,2.27-8.85,4.72-4.23,4.03-7.39,10.05-8.51,16.21-.45,2.46-.62,6.22-.38,8.39.46,4.12,1.9,7.39,4.38,9.97,2.11,2.2,4.62,3.59,7.56,4.19,1.1.22,4.06.32,5.17.16,3.08-.44,5.76-1.73,8.16-3.93.33-.3.61-.53.62-.51s.12.31.22.62c.43,1.29,1.48,2.54,2.59,3.11,1.03.52,2.01.71,3.99.76,8.67.26,16.02-3.84,21.4-11.97,4.22-6.38,5.88-13.54,4.96-21.36-.62-5.3-2.62-10.53-5.62-14.72-5.08-7.08-13.71-11.56-23.93-12.4-1.96-.16-4.58-.21-6.46-.12ZM66.5,54.6c2.62.55,4.73,2.77,5.48,5.76.39,1.57.5,3.98.26,6.09-.27,2.55-1.17,6.04-2.27,8.76-1.05,2.61-1.98,4.1-3.62,5.73s-3.2,2.46-5.25,2.74c-2.27.32-4.2-.36-5.8-2.04-1.59-1.67-2.38-4.25-2.38-7.89,0-4.69,1.7-10.99,3.83-14.21,2.49-3.77,6.25-5.69,9.73-4.96Z"/>
</svg>