<?xml version="1.0" encoding="UTF-8"?>
<svg id="Calque_1" data-name="Calque 1" xmlns="http://www.w3.org/2000/svg" viewBox="0 0 135 135">
  <defs>
    <style>
      .cls-1 {
        fill: #FA9900;
      }
    </style>
  </defs>
  <path class="cls-1" d="M.05,63.31C1.73,34.66,22.62,9.42,50.34,2.24c48.67-12.6,93.2,29.88,83.26,79.04-4.89,24.21-23.66,44.36-47.36,51.08v-49.81h14.5l2.11-16.87h-16.6v-13.57c0-.79,1.19-3.12,1.83-3.7.61-.55,3.08-1.7,3.83-1.7h11.47v-15.29c-11-.68-23.88-2.57-30.95,7.93-1.44,2.14-3.58,7.36-3.58,9.86v16.08l-.4.4h-14.1v16.87h14.5l-.26,52.45h-5.27c-1.52-.41-3.25-.35-4.84-.56-29.79-3.95-53.95-28.03-57.85-57.85-.21-1.58-.16-3.32-.56-4.84.12-2.79-.16-5.65,0-8.43Z"/>
</svg>