<?xml version="1.0" standalone="no"?>
<!DOCTYPE svg PUBLIC "-//W3C//DTD SVG 20010904//EN"
 "http://www.w3.org/TR/2001/REC-SVG-20010904/DTD/svg10.dtd">
<svg version="1.0" xmlns="http://www.w3.org/2000/svg"
 width="2000.000000pt" height="2000.000000pt" viewBox="0 0 2000.000000 2000.000000"
 preserveAspectRatio="xMidYMid meet">

<g transform="translate(0.000000,2000.000000) scale(0.100000,-0.100000)"
fill="#000000" stroke="none">
<path d="M9705 14124 c-309 -26 -554 -63 -803 -125 -1048 -257 -1963 -863
-2612 -1731 -538 -718 -844 -1544 -911 -2458 -14 -200 -7 -607 16 -800 122
-1068 582 -2028 1330 -2775 365 -365 749 -641 1216 -874 539 -269 1096 -424
1702 -472 220 -17 709 -7 912 20 564 73 1046 220 1531 467 1440 732 2394 2153
2524 3758 13 164 13 584 0 741 -76 904 -410 1761 -963 2470 -640 820 -1536
1402 -2539 1650 -376 93 -641 125 -1053 130 -165 1 -322 1 -350 -1z m535 -594
c1435 -91 2701 -922 3355 -2205 218 -427 351 -871 412 -1375 25 -204 25 -696
0 -900 -62 -497 -193 -933 -411 -1365 -201 -395 -429 -709 -751 -1030 -524
-525 -1142 -878 -1853 -1061 -347 -89 -593 -118 -992 -119 -401 0 -626 27
-980 115 -1490 371 -2653 1575 -2969 3075 -230 1089 -5 2214 628 3130 246 357
611 729 964 983 754 542 1677 809 2597 752z"/>
<path d="M8855 11883 c-472 -61 -886 -354 -1097 -778 -59 -117 -91 -207 -120
-336 l-23 -104 0 -1160 c0 -1285 -3 -1211 66 -1418 152 -458 529 -809 996
-928 189 -48 279 -51 1403 -47 1150 4 1111 2 1326 73 491 162 847 566 956
1082 22 108 22 112 26 1148 4 1129 1 1219 -47 1408 -119 467 -470 844 -928
996 -207 69 -117 65 -1383 67 -630 1 -1158 0 -1175 -3z m2325 -485 c387 -106
659 -400 725 -787 14 -76 15 -233 13 -1147 l-3 -1059 -27 -97 c-48 -176 -139
-328 -269 -454 -144 -138 -289 -213 -488 -254 -96 -19 -135 -20 -1129 -20
-1110 0 -1111 0 -1267 53 -146 50 -262 123 -376 236 -125 125 -207 269 -257
451 l-27 95 -3 1020 c-3 1059 -1 1143 38 1282 28 100 110 257 181 346 144 184
398 326 634 356 39 5 540 8 1115 7 l1045 -1 95 -27z"/>
<path d="M11195 11049 c-22 -5 -60 -23 -85 -40 -146 -99 -165 -299 -42 -424
129 -131 344 -99 436 65 27 48 31 64 31 130 0 80 -17 126 -70 188 -54 64 -182
103 -270 81z"/>
<path d="M9837 10685 c-410 -69 -754 -355 -903 -752 -63 -167 -84 -430 -49
-612 98 -508 513 -886 1036 -942 337 -37 697 96 939 347 223 231 330 496 330
815 0 411 -210 780 -566 996 -225 136 -522 192 -787 148z m369 -425 c268 -68
477 -274 545 -537 24 -95 27 -270 5 -353 -60 -226 -197 -401 -390 -495 -128
-63 -198 -79 -336 -79 -139 0 -208 16 -340 81 -171 84 -321 261 -374 442 -105
357 59 730 393 889 152 73 339 92 497 52z"/>
</g>
</svg>
